# xmcd CD database file
#
# Track frame offsets:
#	182
#	15095
#	29170
#	42872
#	55347
#	69510
#	79742
#	93345
#	106347
#	117012
#	130600
#	143087
#	156015
#	167450
#	179967
#	193012
#	206705
#	219912
#	234705
#	249230
#	260710
#	274505
#	290120
#	303535
#	314807
#	329577
#
# Disc length: 4585 seconds
#
# Revision: 0
# Processed by: cddbd v1.4PL0 Copyright (c) Steve Scherf et al.
# Submitted via: CDex 1.50Beta3
#
DISCID=8111e71a
DTITLE=Art Tatum - Complete Brunswick and Decca Recordings 1932 - 1941
DYEAR=1900
DGENRE=Jazz
TTITLE0=Elegie
TTITLE1=Humoresque
TTITLE2=Sweet Lorraine
TTITLE3=Get Happy
TTITLE4=Lullaby Of The Leaves
TTITLE5=Tiger Rag
TTITLE6=Sweet Emalina My Gal
TTITLE7=Sweet Emalina My Gal
TTITLE8=Emaline
TTITLE9=Moonglow
TTITLE10=Love me
TTITLE11=Cocktails For Two
TTITLE12=St. Louis Blues
TTITLE13=Begin The Beguine
TTITLE14=Rosetta
TTITLE15=Indiana
TTITLE16=Wee Baby Blues
TTITLE17=Stompin' At The Savoy
TTITLE18=Last Goodbye Blues
TTITLE19=Battery Bounce
TTITLE20=Lucille
TTITLE21=Lucille
TTITLE22=Rock Me Mama
TTITLE23=Corrine Corrina
TTITLE24=Lonesome Graveyard Blues
TTITLE25=Lonesome Graveyard Blues
EXTD=
EXTT0=
EXTT1=
EXTT2=
EXTT3=
EXTT4=
EXTT5=
EXTT6=
EXTT7=
EXTT8=
EXTT9=
EXTT10=
EXTT11=
EXTT12=
EXTT13=
EXTT14=
EXTT15=
EXTT16=
EXTT17=
EXTT18=
EXTT19=
EXTT20=
EXTT21=
EXTT22=
EXTT23=
EXTT24=
EXTT25=
PLAYORDER=
